<svg version="1.1" xmlns="http://www.w3.org/2000/svg" xmlns:xlink="http://www.w3.org/1999/xlink" width="24px" height="24px" viewBox="0,0,256,256"><g fill="#3f9c7d" fill-rule="nonzero" stroke="none" stroke-width="1" stroke-linecap="butt" stroke-linejoin="miter" stroke-miterlimit="10" stroke-dasharray="" stroke-dashoffset="0" font-family="none" font-weight="none" font-size="none" text-anchor="none" style="mix-blend-mode: normal"><g transform="scale(10.66667,10.66667)"><path d="M12,3c2.21,0 4,1.79 4,4c0,2.21 -1.79,4 -4,4c-2.21,0 -4,-1.79 -4,-4c0,-2.21 1.79,-4 4,-4M16,13.54c0,1.06 -0.28,3.53 -2.19,6.29l-0.81,-4.83l0.94,-1.88c-0.62,-0.07 -1.27,-0.12 -1.94,-0.12c-0.67,0 -1.32,0.05 -1.94,0.12l0.94,1.88l-0.81,4.83c-1.91,-2.76 -2.19,-5.23 -2.19,-6.29c-2.39,0.7 -4,1.96 -4,3.46v4h16v-4c0,-1.5 -1.6,-2.76 -4,-3.46z"></path></g></g></svg>